<svg width="20" height="22" viewBox="0 0 20 22" fill="none" xmlns="http://www.w3.org/2000/svg">
<path d="M6.29 11.71C5.30961 10.9387 4.59401 9.88092 4.24276 8.68394C3.89152 7.48697 3.92208 6.21027 4.33022 5.03147C4.73835 3.85267 5.50375 2.83039 6.51993 2.10686C7.53612 1.38332 8.75255 0.994507 10 0.994507C11.2475 0.994507 12.4639 1.38332 13.4801 2.10686C14.4963 2.83039 15.2617 3.85267 15.6698 5.03147C16.0779 6.21027 16.1085 7.48697 15.7572 8.68394C15.406 9.88092 14.6904 10.9387 13.71 11.71C15.3899 12.383 16.8557 13.4994 17.9511 14.9399C19.0465 16.3805 19.7304 18.0913 19.93 19.89C19.9444 20.0213 19.9329 20.1542 19.896 20.2811C19.8591 20.4079 19.7975 20.5263 19.7149 20.6293C19.548 20.8375 19.3052 20.9708 19.04 21C18.7748 21.0292 18.5088 20.9518 18.3007 20.7849C18.0925 20.618 17.9592 20.3752 17.93 20.11C17.7104 18.1552 16.7783 16.3498 15.3118 15.0388C13.8453 13.7278 11.9471 13.003 9.98 13.003C8.0129 13.003 6.11476 13.7278 4.64822 15.0388C3.18169 16.3498 2.24959 18.1552 2.03 20.11C2.00282 20.3557 1.88557 20.5827 1.7009 20.747C1.51623 20.9114 1.27722 21.0015 1.03 21H0.920004C0.657867 20.9698 0.418278 20.8373 0.253443 20.6313C0.0886078 20.4252 0.0118885 20.1624 0.0400047 19.9C0.240511 18.0962 0.928129 16.381 2.02915 14.9382C3.13018 13.4954 4.60309 12.3795 6.29 11.71ZM10 11C10.7911 11 11.5645 10.7654 12.2223 10.3259C12.8801 9.88636 13.3928 9.26164 13.6955 8.53074C13.9983 7.79983 14.0775 6.99557 13.9231 6.21964C13.7688 5.44372 13.3878 4.73099 12.8284 4.17158C12.269 3.61217 11.5563 3.2312 10.7804 3.07686C10.0044 2.92252 9.20017 3.00173 8.46927 3.30448C7.73836 3.60724 7.11365 4.11993 6.67412 4.77772C6.2346 5.43552 6 6.20888 6 7C6 8.06087 6.42143 9.07828 7.17158 9.82843C7.92172 10.5786 8.93914 11 10 11Z" fill="#868687"/>
</svg>
