<svg width="30" height="30" viewBox="0 0 24 24" fill="none" xmlns="http://www.w3.org/2000/svg">
<path d="M22 12.001H16L14 15.001H10L8 12.001H2" stroke="#3E3E40" stroke-width="2" stroke-linecap="round" stroke-linejoin="round"/>
<path d="M5.45 5.11098L2 12.001V18.001C2 18.5314 2.21071 19.0401 2.58579 19.4152C2.96086 19.7903 3.46957 20.001 4 20.001H20C20.5304 20.001 21.0391 19.7903 21.4142 19.4152C21.7893 19.0401 22 18.5314 22 18.001V12.001L18.55 5.11098C18.3844 4.77776 18.1292 4.49735 17.813 4.30126C17.4967 4.10516 17.1321 4.00117 16.76 4.00098H7.24C6.86792 4.00117 6.50326 4.10516 6.18704 4.30126C5.87083 4.49735 5.61558 4.77776 5.45 5.11098V5.11098Z" stroke="#3E3E40" stroke-width="2" stroke-linecap="round" stroke-linejoin="round"/>
</svg>
