<svg width="30" height="30" viewBox="0 0 28 28" fill="none" xmlns="http://www.w3.org/2000/svg">
<path d="M26 19.3333H7.33329C6.97967 19.3333 6.64053 19.1928 6.39048 18.9428C6.14044 18.6927 5.99996 18.3536 5.99996 18C5.99996 17.6463 6.14044 17.3072 6.39048 17.0572C6.64053 16.8071 6.97967 16.6666 7.33329 16.6666H21.2533C22.1448 16.6667 23.0108 16.3689 23.7138 15.8205C24.4167 15.2722 24.9164 14.5047 25.1333 13.64L27.3333 4.98663C27.3832 4.78984 27.3876 4.58424 27.346 4.38552C27.3044 4.1868 27.218 4.0002 27.0933 3.83996C26.9636 3.6756 26.7971 3.54409 26.6071 3.45607C26.4172 3.36804 26.2092 3.32598 26 3.33329H7.01329C6.73821 2.55523 6.2292 1.88129 5.55605 1.40388C4.88289 0.926464 4.07855 0.668945 3.25329 0.666626H1.99996C1.64634 0.666626 1.3072 0.807102 1.05715 1.05715C0.807102 1.3072 0.666626 1.64634 0.666626 1.99996C0.666626 2.35358 0.807102 2.69272 1.05715 2.94277C1.3072 3.19282 1.64634 3.33329 1.99996 3.33329H3.25329C3.55787 3.32442 3.8563 3.42014 4.0989 3.60451C4.3415 3.78888 4.51362 4.05079 4.58663 4.34663L4.66663 4.98663L6.97329 14C5.91243 14.0477 4.91397 14.5149 4.19759 15.2988C3.4812 16.0827 3.10555 17.1191 3.15329 18.18C3.20103 19.2408 3.66824 20.2393 4.45214 20.9557C5.23605 21.6721 6.27243 22.0477 7.33329 22H7.57329C7.35401 22.6041 7.28354 23.2523 7.36787 23.8894C7.45219 24.5266 7.68882 25.1341 8.05772 25.6604C8.42661 26.1868 8.91691 26.6165 9.4871 26.9131C10.0573 27.2098 10.6906 27.3647 11.3333 27.3647C11.976 27.3647 12.6093 27.2098 13.1795 26.9131C13.7497 26.6165 14.24 26.1868 14.6089 25.6604C14.9778 25.1341 15.2144 24.5266 15.2987 23.8894C15.383 23.2523 15.3126 22.6041 15.0933 22H18.24C18.0207 22.6041 17.9502 23.2523 18.0345 23.8894C18.1189 24.5266 18.3555 25.1341 18.7244 25.6604C19.0933 26.1868 19.5836 26.6165 20.1538 26.9131C20.7239 27.2098 21.3572 27.3647 22 27.3647C22.6427 27.3647 23.276 27.2098 23.8462 26.9131C24.4163 26.6165 24.9066 26.1868 25.2755 25.6604C25.6444 25.1341 25.8811 24.5266 25.9654 23.8894C26.0497 23.2523 25.9792 22.6041 25.76 22H26C26.3536 22 26.6927 21.8595 26.9428 21.6094C27.1928 21.3594 27.3333 21.0202 27.3333 20.6666C27.3333 20.313 27.1928 19.9739 26.9428 19.7238C26.6927 19.4738 26.3536 19.3333 26 19.3333ZM24.2933 5.99996L22.5466 12.9866C22.4736 13.2825 22.3015 13.5444 22.0589 13.7287C21.8163 13.9131 21.5179 14.0088 21.2133 14H9.70662L7.70663 5.99996H24.2933ZM11.3333 24.6666C11.0696 24.6666 10.8118 24.5884 10.5925 24.4419C10.3733 24.2954 10.2024 24.0872 10.1015 23.8435C10.0005 23.5999 9.97413 23.3318 10.0256 23.0732C10.077 22.8145 10.204 22.577 10.3905 22.3905C10.577 22.204 10.8145 22.077 11.0732 22.0256C11.3318 21.9741 11.5999 22.0005 11.8435 22.1015C12.0872 22.2024 12.2954 22.3733 12.4419 22.5925C12.5884 22.8118 12.6666 23.0696 12.6666 23.3333C12.6666 23.6869 12.5261 24.0261 12.2761 24.2761C12.0261 24.5262 11.6869 24.6666 11.3333 24.6666ZM22 24.6666C21.7362 24.6666 21.4785 24.5884 21.2592 24.4419C21.0399 24.2954 20.869 24.0872 20.7681 23.8435C20.6672 23.5999 20.6408 23.3318 20.6922 23.0732C20.7437 22.8145 20.8707 22.577 21.0571 22.3905C21.2436 22.204 21.4812 22.077 21.7398 22.0256C21.9985 21.9741 22.2666 22.0005 22.5102 22.1015C22.7538 22.2024 22.9621 22.3733 23.1086 22.5925C23.2551 22.8118 23.3333 23.0696 23.3333 23.3333C23.3333 23.6869 23.1928 24.0261 22.9428 24.2761C22.6927 24.5262 22.3536 24.6666 22 24.6666Z" fill="#3E3E40"/>
</svg>
