<svg width="22" height="17" viewBox="0 0 24 19" fill="none" xmlns="http://www.w3.org/2000/svg">
<path d="M23.2441 8.86667C20.8874 3.395 16.4541 0 11.6707 0C6.8874 0 2.45407 3.395 0.0973989 8.86667C0.0331584 9.01386 0 9.17273 0 9.33333C0 9.49393 0.0331584 9.6528 0.0973989 9.8C2.45407 15.2717 6.8874 18.6667 11.6707 18.6667C16.4541 18.6667 20.8874 15.2717 23.2441 9.8C23.3083 9.6528 23.3415 9.49393 23.3415 9.33333C23.3415 9.17273 23.3083 9.01386 23.2441 8.86667ZM11.6707 16.3333C7.9724 16.3333 4.4724 13.6617 2.45407 9.33333C4.4724 5.005 7.9724 2.33333 11.6707 2.33333C15.3691 2.33333 18.8691 5.005 20.8874 9.33333C18.8691 13.6617 15.3691 16.3333 11.6707 16.3333ZM11.6707 4.66667C10.7478 4.66667 9.8455 4.94036 9.07807 5.45314C8.31064 5.96592 7.7125 6.69475 7.35929 7.54748C7.00608 8.4002 6.91367 9.33851 7.09373 10.2438C7.2738 11.149 7.71825 11.9805 8.3709 12.6332C9.02354 13.2858 9.85506 13.7303 10.7603 13.9103C11.6656 14.0904 12.6039 13.998 13.4566 13.6448C14.3093 13.2916 15.0381 12.6934 15.5509 11.926C16.0637 11.1586 16.3374 10.2563 16.3374 9.33333C16.3374 8.09566 15.8457 6.90867 14.9706 6.0335C14.0954 5.15833 12.9084 4.66667 11.6707 4.66667ZM11.6707 11.6667C11.2092 11.6667 10.7581 11.5298 10.3744 11.2734C9.99069 11.017 9.69162 10.6526 9.51501 10.2263C9.33841 9.7999 9.2922 9.33074 9.38223 8.87812C9.47226 8.4255 9.69449 8.00974 10.0208 7.68342C10.3471 7.35709 10.7629 7.13487 11.2155 7.04483C11.6681 6.9548 12.1373 7.00101 12.5637 7.17761C12.99 7.35422 13.3544 7.65329 13.6108 8.037C13.8672 8.42072 14.0041 8.87184 14.0041 9.33333C14.0041 9.95217 13.7582 10.5457 13.3206 10.9832C12.8831 11.4208 12.2896 11.6667 11.6707 11.6667Z" fill="#3E3E40"/>
</svg>
