<svg width="24" height="24" viewBox="0 0 24 24" fill="none" xmlns="http://www.w3.org/2000/svg">
<path d="M6.66667 21.3333C5.6058 21.3333 4.58839 20.9119 3.83824 20.1618C3.08809 19.4116 2.66667 18.3942 2.66667 17.3333V6.66667C2.66667 5.6058 3.08809 4.58839 3.83824 3.83824C4.58839 3.08809 5.6058 2.66667 6.66667 2.66667C7.02029 2.66667 7.35943 2.52619 7.60948 2.27614C7.85952 2.02609 8 1.68696 8 1.33333C8 0.979711 7.85952 0.640573 7.60948 0.390524C7.35943 0.140476 7.02029 0 6.66667 0C4.89856 0 3.20286 0.702379 1.95262 1.95262C0.702379 3.20286 0 4.89856 0 6.66667V17.3333C0 19.1014 0.702379 20.7971 1.95262 22.0474C3.20286 23.2976 4.89856 24 6.66667 24C7.02029 24 7.35943 23.8595 7.60948 23.6095C7.85952 23.3594 8 23.0203 8 22.6667C8 22.313 7.85952 21.9739 7.60948 21.7239C7.35943 21.4738 7.02029 21.3333 6.66667 21.3333ZM16.9467 16.9467C17.0716 16.8227 17.1708 16.6752 17.2385 16.5128C17.3062 16.3503 17.3411 16.176 17.3411 16C17.3411 15.824 17.3062 15.6497 17.2385 15.4872C17.1708 15.3248 17.0716 15.1773 16.9467 15.0533L13.88 12L16.9467 8.94667C17.1977 8.6956 17.3388 8.35507 17.3388 8C17.3388 7.64493 17.1977 7.30441 16.9467 7.05333C16.6956 6.80226 16.3551 6.66121 16 6.66121C15.6449 6.66121 15.3044 6.80226 15.0533 7.05333L12 10.12L8.94667 7.05333C8.6956 6.80226 8.35507 6.66121 8 6.66121C7.64493 6.66121 7.30441 6.80226 7.05333 7.05333C6.80226 7.30441 6.66121 7.64493 6.66121 8C6.66121 8.35507 6.80226 8.6956 7.05333 8.94667L10.12 12L7.05333 15.0533C6.92836 15.1773 6.82917 15.3248 6.76148 15.4872C6.69379 15.6497 6.65894 15.824 6.65894 16C6.65894 16.176 6.69379 16.3503 6.76148 16.5128C6.82917 16.6752 6.92836 16.8227 7.05333 16.9467C7.17728 17.0716 7.32475 17.1708 7.48723 17.2385C7.64971 17.3062 7.82398 17.3411 8 17.3411C8.17602 17.3411 8.35029 17.3062 8.51277 17.2385C8.67525 17.1708 8.82272 17.0716 8.94667 16.9467L12 13.88L15.0533 16.9467C15.1773 17.0716 15.3248 17.1708 15.4872 17.2385C15.6497 17.3062 15.824 17.3411 16 17.3411C16.176 17.3411 16.3503 17.3062 16.5128 17.2385C16.6752 17.1708 16.8227 17.0716 16.9467 16.9467ZM17.3333 0C16.9797 0 16.6406 0.140476 16.3905 0.390524C16.1405 0.640573 16 0.979711 16 1.33333C16 1.68696 16.1405 2.02609 16.3905 2.27614C16.6406 2.52619 16.9797 2.66667 17.3333 2.66667C18.3942 2.66667 19.4116 3.08809 20.1618 3.83824C20.9119 4.58839 21.3333 5.6058 21.3333 6.66667V17.3333C21.3333 18.3942 20.9119 19.4116 20.1618 20.1618C19.4116 20.9119 18.3942 21.3333 17.3333 21.3333C16.9797 21.3333 16.6406 21.4738 16.3905 21.7239C16.1405 21.9739 16 22.313 16 22.6667C16 23.0203 16.1405 23.3594 16.3905 23.6095C16.6406 23.8595 16.9797 24 17.3333 24C19.1014 24 20.7971 23.2976 22.0474 22.0474C23.2976 20.7971 24 19.1014 24 17.3333V6.66667C24 4.89856 23.2976 3.20286 22.0474 1.95262C20.7971 0.702379 19.1014 0 17.3333 0Z" fill="#DF0707"/>
</svg>
